<svg width="200" height="200" viewBox="0 0 200 200" xmlns="http://www.w3.org/2000/svg">
  <defs>
    <linearGradient id="cloudGradient" x1="0%" y1="0%" x2="100%" y2="100%">
      <stop offset="0%" style="stop-color:#4facfe;stop-opacity:1" />
      <stop offset="100%" style="stop-color:#00f2fe;stop-opacity:1" />
    </linearGradient>
  </defs>
  
  <!-- Cloud Shape -->
  <path d="M140,85 C140,65 125,50 105,50 C90,50 78,60 73,72 C69,70 65,70 60,70 C40,70 25,85 25,105 C25,125 40,140 60,140 L140,140 C160,140 175,125 175,105 C175,85 160,70 140,85 Z" fill="url(#cloudGradient)" />
  
  <!-- Router Arrows -->
  <path d="M70,105 L130,105" stroke="white" stroke-width="8" stroke-linecap="round" />
  <path d="M120,95 L130,105 L120,115" stroke="white" stroke-width="8" stroke-linecap="round" fill="none" />
  <path d="M80,115 L70,105 L80,95" stroke="white" stroke-width="8" stroke-linecap="round" fill="none" />
  
  <!-- Connection Dots -->
  <circle cx="50" cy="105" r="5" fill="white" />
  <circle cx="150" cy="105" r="5" fill="white" />
</svg>